<?xml version="1.0" standalone="no"?>
<!DOCTYPE svg PUBLIC "-//W3C//DTD SVG 20010904//EN"
 "http://www.w3.org/TR/2001/REC-SVG-20010904/DTD/svg10.dtd">
<svg version="1.0" xmlns="http://www.w3.org/2000/svg"
 width="270.000000pt" height="270.000000pt" viewBox="0 0 270.000000 270.000000"
 preserveAspectRatio="xMidYMid meet">
<metadata>
Created by potrace 1.14, written by Peter Selinger 2001-2017
</metadata>
<g transform="translate(0.000000,270.000000) scale(0.100000,-0.100000)"
fill="#000000" stroke="none">
<path d="M973 2273 c-14 -68 -7 -165 17 -221 l22 -52 -26 -35 c-40 -52 -74
-133 -82 -192 l-6 -52 -31 15 c-71 37 -135 13 -169 -63 -34 -76 -7 -179 66
-261 42 -47 81 -65 127 -60 l34 3 -49 25 c-73 37 -109 86 -114 159 -4 54 -2
60 21 76 21 14 30 14 49 4 30 -16 38 -28 38 -62 0 -19 10 -39 30 -57 19 -18
28 -34 24 -44 -12 -30 -54 -12 -85 37 l-21 32 7 -30 c8 -36 47 -79 86 -95 17
-8 29 -20 29 -31 0 -38 49 -151 85 -194 20 -25 83 -77 139 -114 113 -76 150
-110 175 -159 l18 -34 12 30 c19 45 65 88 177 163 56 37 119 89 139 114 36 43
85 156 85 194 0 11 12 23 29 31 39 16 78 59 86 95 l7 30 -21 -32 c-31 -49 -73
-67 -85 -37 -4 10 5 26 24 44 20 18 30 38 30 57 0 34 8 46 38 62 19 10 28 10
49 -4 23 -16 25 -22 21 -76 -5 -73 -41 -122 -114 -159 l-49 -25 34 -3 c46 -5
85 13 127 60 106 118 107 280 0 332 -38 19 -39 19 -86 -1 l-47 -20 -7 59 c-7
70 -36 141 -74 182 -41 44 -93 73 -206 116 -109 43 -190 90 -207 121 -16 30
-30 12 -23 -28 6 -34 6 -35 -17 -23 -50 26 -90 63 -109 101 -11 21 -23 39 -27
39 -3 0 -3 -27 0 -59 l5 -60 -26 10 c-51 19 -81 43 -107 86 -16 23 -29 43 -31
43 -2 0 -7 -17 -11 -37z m275 -458 c20 -9 53 -32 73 -51 l35 -34 30 31 c80 86
209 92 302 15 60 -51 49 -56 -128 -56 -100 0 -160 -4 -160 -10 0 -5 -20 -10
-45 -10 -25 0 -45 5 -45 10 0 6 -60 10 -160 10 -131 0 -160 3 -160 14 0 17 54
64 95 82 41 18 118 17 163 -1z m32 -190 c0 -57 -3 -68 -29 -97 -28 -31 -34
-33 -109 -36 -127 -6 -172 32 -172 148 l0 50 155 0 155 0 0 -65z m460 15 c0
-116 -45 -154 -172 -148 -75 3 -81 5 -109 36 -26 29 -29 40 -29 97 l0 65 155
0 155 0 0 -50z m-340 -45 c12 -104 53 -135 183 -135 49 0 98 5 110 11 21 11
21 11 -1 -14 -13 -14 -37 -31 -53 -37 -16 -7 -29 -13 -29 -15 0 -1 8 -17 17
-36 10 -19 18 -56 18 -86 0 -72 -40 -127 -124 -170 -72 -38 -116 -42 -146 -13
l-22 20 -18 -20 c-26 -29 -73 -25 -146 13 -84 43 -124 98 -124 170 0 30 8 67
18 86 9 19 17 35 17 36 0 2 -13 8 -29 15 -16 6 -40 23 -53 37 -22 25 -22 25
-1 14 33 -17 188 -14 224 4 40 21 69 71 69 121 0 50 5 56 50 52 34 -3 35 -4
40 -53z"/>
<path d="M1131 1644 c-27 -35 -26 -59 4 -89 31 -32 74 -33 103 -2 30 32 29 67
-2 67 -13 0 -27 -8 -30 -17 -5 -12 -9 -14 -18 -5 -9 9 -9 15 0 24 7 7 12 20
12 30 0 28 -45 23 -69 -8z"/>
<path d="M1470 1650 c-27 -27 -26 -71 3 -98 31 -29 72 -28 102 3 33 32 33 65
1 65 -13 0 -26 -7 -30 -15 -8 -22 -26 -18 -26 5 0 11 4 20 8 20 4 0 8 9 8 20
0 14 -7 20 -23 20 -13 0 -32 -9 -43 -20z"/>
<path d="M1260 1445 c0 -26 9 -29 48 -19 22 6 22 8 6 25 -25 28 -54 25 -54 -6z"/>
<path d="M1396 1451 c-16 -17 -16 -19 6 -25 39 -10 48 -7 48 19 0 31 -29 34
-54 6z"/>
<path d="M1170 1320 c-13 -24 3 -41 77 -86 49 -29 150 -49 184 -35 20 8 14 10
-31 11 -31 0 -73 9 -96 19 -47 21 -117 87 -109 102 4 5 2 9 -4 9 -6 0 -15 -9
-21 -20z"/>
</g>
</svg>
